<svg xmlns="http://www.w3.org/2000/svg" version="1.1" xmlns:xlink="http://www.w3.org/1999/xlink" xmlns:svgjs="http://svgjs.dev/svgjs" viewBox="0 0 20.086013512769906 9.806466340334659"><g transform="matrix(0.797435356299188,0,0,0.797435356299188,8.549860795305866,3.512708187916114)"><rect width="22.57705350052862" height="22.57705350052862" x="-9.416091637769904" y="-9.544780412373685" fill="#ffffff"></rect><g transform="matrix(1,0,0,1,0,0)" clip-path="url(#SvgjsClipPath30061)"><g clip-path="url(#SvgjsClipPath3005655875013-1497-4b1d-8e8d-50c1de09d8ee)"><path d=" M -5.971427996465224 0.6297729633672202 L -5.971427996465224 0.6297729633672202 L -5.971427996465224 2.413914504145453 L -5.213167841634475 1.975461720499199 L -5.213167841634475 1.0673336762430772 L -5.164996020033463 1.0396794823610165 L -3.4736298393757004 0.06330802417012604 L -3.4736298393757004 -0.5990545228437918 C -2.8295547431547607 -0.22616894082114425 -2.1848849330868916 0.1455272135076613 -1.539620409172099 0.5160339401426013 L -1.539620409172099 2.5231931735181115 L -0.7813602543413474 2.961645957164365 L -0.7813602543413474 0.076689085725965 L -0.7813602543413474 0.076689085725965 L -2.317506120951408 -0.8100292600408179 L -2.317506120951408 -0.8100292600408179 L -3.85231388140588 -1.6940713934964247 L -4.231443958821253 -1.913074767626951 L -4.231443958821253 -0.37425268870572626 L -5.970981961080031 0.630218998752416 Z" fill="#0b56a6" transform="matrix(1,0,0,1,0,0)" fill-rule="evenodd"></path></g><g clip-path="url(#SvgjsClipPath3005655875013-1497-4b1d-8e8d-50c1de09d8ee)"><path d=" M -2.3157219794106263 4.514295133026625 L -2.3157219794106263 4.514295133026625 L -0.7795761128005676 3.6271307518746503 L -0.3999999999999986 3.4081273777441194 L -1.7327537309613392 2.6387163382835097 L -1.7327537309613392 0.6315571049079995 L -2.793871912339193 0.017366379495093787 L -3.2791584114308736 -0.2627438424070878 L -3.2791584114308736 0.6141617248854105 L -2.492798027332868 1.067779711628273 L -2.492798027332868 3.074938945003787 L -2.112775879147107 3.29438835451951 L -1.9196425573578644 3.4058972008181487 C -2.564609724349193 3.7772959982234853 -3.20927953441706 4.148992152552282 -3.8536519875614657 4.520985663804547 L -3.901377773777284 4.4928854345372855 L -5.592297919049853 3.5169600117315913 L -6.3505580738806 3.955412795377845 L -3.8527599167910758 5.397891231097045 Z" fill="#2fb5e8" transform="matrix(1,0,0,1,0,0)" fill-rule="evenodd"></path></g><g clip-path="url(#SvgjsClipPath3005655875013-1497-4b1d-8e8d-50c1de09d8ee)"><path d=" M -6.165453389024857 0.5178180816833904 L -6.116835532038651 0.489717852416129 L -4.426361422151276 -0.48620757038956075 L -4.426361422151276 -1.3635591730672596 L -6.9241595792408 0.07936529803713643 L -6.9241595792408 4.065583535520899 L -5.591405848279461 3.2961724960602896 L -3.8518678460206863 4.300644183518433 L -2.793871912339193 3.6886836350315018 L -2.793871912339193 3.6886836350315018 L -2.3081393778623216 3.4081273777441194 L -3.06639953269307 2.9696745940978704 L -3.853205952176272 3.4237386162259287 L -3.9009317383920905 3.396084422343869 L -5.592297919049855 2.4197129641529824 L -5.972320067235619 2.639162373668705 L -6.1654533890248615 2.7506712199673484 C -6.16456131825447 2.0066841974628233 -6.16456131825447 1.262399818034834 -6.165453389024857 0.5178180816833904 Z" fill="#017cc0" transform="matrix(1,0,0,1,0,0)" fill-rule="evenodd"></path></g></g><g><path d=" M 0.84228515625 0.27978515625 L 0.843017578125 0.544189453125 Q 0.843017578125 0.821044921875 0.854736328125 1.15283203125 Q 0.85546875 1.17626953125 0.8426513671875 1.187255859375 Q 0.829833984375 1.1982421875 0.813720703125 1.1982421875 Q 0.797607421875 1.1982421875 0.784423828125 1.185791015625 Q 0.771240234375 1.17333984375 0.771240234375 1.14990234375 Q 0.7822265625 0.8203125 0.7822265625 0.6005859375 L 0.7822265625 0.22119140625 Q 0.7822265625 0.1787109375 0.781494140625 0.141357421875 Q 0.765380859375 0.20361328125 0.73974609375 0.30322265625 Q 0.68115234375 0.522216796875 0.65771484375 0.6060791015625 Q 0.63427734375 0.68994140625 0.61083984375 0.771240234375 Q 0.5625 0.93896484375 0.520751953125 1.065673828125 Q 0.516357421875 1.080322265625 0.5035400390625 1.087646484375 Q 0.49072265625 1.094970703125 0.47900390625 1.094970703125 Q 0.456298828125 1.094970703125 0.4482421875 1.065673828125 Q 0.444580078125 1.053955078125 0.4310302734375 1.0089111328125 Q 0.41748046875 0.9638671875 0.3973388671875 0.8975830078125 Q 0.377197265625 0.831298828125 0.3526611328125 0.7489013671875 Q 0.328125 0.66650390625 0.3021240234375 0.580078125 Q 0.276123046875 0.49365234375 0.251220703125 0.40869140625 Q 0.226318359375 0.32373046875 0.205810546875 0.251953125 Q 0.18896484375 0.192626953125 0.17724609375 0.1494140625 L 0.1787109375 0.3310546875 Q 0.1787109375 0.662841796875 0.1856689453125 0.879638671875 Q 0.192626953125 1.096435546875 0.193359375 1.131591796875 Q 0.194091796875 1.166748046875 0.1900634765625 1.1748046875 Q 0.18603515625 1.182861328125 0.179443359375 1.18798828125 Q 0.15087890625 1.212158203125 0.123046875 1.1865234375 Q 0.10986328125 1.174072265625 0.1116943359375 1.142578125 Q 0.113525390625 1.111083984375 0.114990234375 1.0638427734375 Q 0.116455078125 1.0166015625 0.1171875 0.9638671875 Q 0.1201171875 0.83935546875 0.1201171875 0.733154296875 L 0.111328125 0.066650390625 Q 0.111328125 0.03369140625 0.126708984375 0.0201416015625 Q 0.14208984375 0.006591796875 0.16259765625 0.006591796875 Q 0.201416015625 0.006591796875 0.216064453125 0.053466796875 Q 0.217529296875 0.057861328125 0.2237548828125 0.0794677734375 Q 0.22998046875 0.10107421875 0.240234375 0.1358642578125 Q 0.25048828125 0.170654296875 0.2640380859375 0.2164306640625 Q 0.277587890625 0.26220703125 0.29296875 0.31494140625 Q 0.308349609375 0.36767578125 0.3251953125 0.425537109375 Q 0.3837890625 0.626953125 0.487060546875 0.97705078125 Q 0.541259765625 0.822509765625 0.68701171875 0.276123046875 Q 0.715576171875 0.167724609375 0.744140625 0.054931640625 Q 0.75732421875 0.00439453125 0.804931640625 0.00439453125 Q 0.823974609375 0.00439453125 0.8353271484375 0.0230712890625 Q 0.8466796875 0.041748046875 0.84521484375 0.076904296875 Q 0.84228515625 0.1259765625 0.84228515625 0.27978515625 M 1.30224609375 0.010986328125 Q 1.31982421875 0.010986328125 1.33447265625 0.025634765625 Q 1.34912109375 0.040283203125 1.3575439453125 0.0867919921875 Q 1.365966796875 0.13330078125 1.3831787109375 0.2197265625 Q 1.400390625 0.30615234375 1.421630859375 0.404296875 Q 1.44287109375 0.50244140625 1.46630859375 0.6068115234375 Q 1.48974609375 0.711181640625 1.51318359375 0.809326171875 Q 1.569580078125 1.039306640625 1.60107421875 1.1455078125 Q 1.6083984375 1.172607421875 1.5970458984375 1.188720703125 Q 1.585693359375 1.204833984375 1.57177734375 1.204833984375 Q 1.557861328125 1.204833984375 1.5465087890625 1.19677734375 Q 1.53515625 1.188720703125 1.5263671875 1.149169921875 Q 1.517578125 1.109619140625 1.497802734375 1.02099609375 Q 1.47802734375 0.932373046875 1.455322265625 0.83056640625 Q 1.45458984375 0.826171875 1.453857421875 0.822509765625 Q 1.404052734375 0.8203125 1.313232421875 0.8203125 Q 1.206298828125 0.8203125 1.14990234375 0.8232421875 Q 1.149169921875 0.82763671875 1.1484375 0.83203125 Q 1.103759765625 1.04736328125 1.08251953125 1.165283203125 Q 1.0751953125 1.20263671875 1.043701171875 1.20263671875 Q 1.0107421875 1.20263671875 1.00341796875 1.17041015625 Q 1.001220703125 1.160888671875 1.0078125 1.140380859375 Q 1.014404296875 1.119873046875 1.0272216796875 1.0697021484375 Q 1.0400390625 1.01953125 1.0550537109375 0.9547119140625 Q 1.070068359375 0.889892578125 1.0869140625 0.81298828125 Q 1.103759765625 0.736083984375 1.121337890625 0.65478515625 Q 1.138916015625 0.573486328125 1.156494140625 0.4910888671875 Q 1.174072265625 0.40869140625 1.190185546875 0.331787109375 Q 1.206298828125 0.2548828125 1.2205810546875 0.1875 Q 1.23486328125 0.1201171875 1.24365234375 0.08056640625 Q 1.257568359375 0.010986328125 1.30224609375 0.010986328125 M 1.163818359375 0.755126953125 Q 1.219482421875 0.758056640625 1.31396484375 0.758056640625 Q 1.392333984375 0.758056640625 1.439208984375 0.755859375 Q 1.423828125 0.689208984375 1.408447265625 0.618896484375 Q 1.38427734375 0.509765625 1.3623046875 0.4072265625 Q 1.32568359375 0.239501953125 1.29931640625 0.11279296875 Q 1.282470703125 0.197021484375 1.2509765625 0.342041015625 Q 1.2099609375 0.535400390625 1.188720703125 0.636474609375 Q 1.17626953125 0.697265625 1.163818359375 0.755126953125 M 2.490234375 0.27978515625 L 2.490966796875 0.544189453125 Q 2.490966796875 0.821044921875 2.502685546875 1.15283203125 Q 2.50341796875 1.17626953125 2.4906005859375 1.187255859375 Q 2.477783203125 1.1982421875 2.461669921875 1.1982421875 Q 2.445556640625 1.1982421875 2.432373046875 1.185791015625 Q 2.419189453125 1.17333984375 2.419189453125 1.14990234375 Q 2.43017578125 0.8203125 2.43017578125 0.6005859375 L 2.43017578125 0.22119140625 Q 2.43017578125 0.1787109375 2.429443359375 0.141357421875 Q 2.413330078125 0.20361328125 2.3876953125 0.30322265625 Q 2.3291015625 0.522216796875 2.3056640625 0.6060791015625 Q 2.2822265625 0.68994140625 2.2587890625 0.771240234375 Q 2.21044921875 0.93896484375 2.168701171875 1.065673828125 Q 2.164306640625 1.080322265625 2.1514892578125 1.087646484375 Q 2.138671875 1.094970703125 2.126953125 1.094970703125 Q 2.104248046875 1.094970703125 2.09619140625 1.065673828125 Q 2.092529296875 1.053955078125 2.0789794921875 1.0089111328125 Q 2.0654296875 0.9638671875 2.0452880859375 0.8975830078125 Q 2.025146484375 0.831298828125 2.0006103515625 0.7489013671875 Q 1.97607421875 0.66650390625 1.9500732421875 0.580078125 Q 1.924072265625 0.49365234375 1.899169921875 0.40869140625 Q 1.874267578125 0.32373046875 1.853759765625 0.251953125 Q 1.8369140625 0.192626953125 1.8251953125 0.1494140625 L 1.82666015625 0.3310546875 Q 1.82666015625 0.662841796875 1.8336181640625 0.879638671875 Q 1.840576171875 1.096435546875 1.84130859375 1.131591796875 Q 1.842041015625 1.166748046875 1.8380126953125 1.1748046875 Q 1.833984375 1.182861328125 1.827392578125 1.18798828125 Q 1.798828125 1.212158203125 1.77099609375 1.1865234375 Q 1.7578125 1.174072265625 1.7596435546875 1.142578125 Q 1.761474609375 1.111083984375 1.762939453125 1.0638427734375 Q 1.764404296875 1.0166015625 1.76513671875 0.9638671875 Q 1.76806640625 0.83935546875 1.76806640625 0.733154296875 L 1.75927734375 0.066650390625 Q 1.75927734375 0.03369140625 1.774658203125 0.0201416015625 Q 1.7900390625 0.006591796875 1.810546875 0.006591796875 Q 1.849365234375 0.006591796875 1.864013671875 0.053466796875 Q 1.865478515625 0.057861328125 1.8717041015625 0.0794677734375 Q 1.8779296875 0.10107421875 1.88818359375 0.1358642578125 Q 1.8984375 0.170654296875 1.9119873046875 0.2164306640625 Q 1.925537109375 0.26220703125 1.94091796875 0.31494140625 Q 1.956298828125 0.36767578125 1.97314453125 0.425537109375 Q 2.03173828125 0.626953125 2.135009765625 0.97705078125 Q 2.189208984375 0.822509765625 2.3349609375 0.276123046875 Q 2.363525390625 0.167724609375 2.39208984375 0.054931640625 Q 2.4052734375 0.00439453125 2.452880859375 0.00439453125 Q 2.471923828125 0.00439453125 2.4832763671875 0.0230712890625 Q 2.49462890625 0.041748046875 2.4931640625 0.076904296875 Q 2.490234375 0.1259765625 2.490234375 0.27978515625 M 2.9501953125 0.010986328125 Q 2.9677734375 0.010986328125 2.982421875 0.025634765625 Q 2.9970703125 0.040283203125 3.0054931640625 0.0867919921875 Q 3.013916015625 0.13330078125 3.0311279296875 0.2197265625 Q 3.04833984375 0.30615234375 3.069580078125 0.404296875 Q 3.0908203125 0.50244140625 3.1142578125 0.6068115234375 Q 3.1376953125 0.711181640625 3.1611328125 0.809326171875 Q 3.217529296875 1.039306640625 3.2490234375 1.1455078125 Q 3.25634765625 1.172607421875 3.2449951171875 1.188720703125 Q 3.233642578125 1.204833984375 3.2197265625 1.204833984375 Q 3.205810546875 1.204833984375 3.1944580078125 1.19677734375 Q 3.18310546875 1.188720703125 3.17431640625 1.149169921875 Q 3.16552734375 1.109619140625 3.145751953125 1.02099609375 Q 3.1259765625 0.932373046875 3.103271484375 0.83056640625 Q 3.1025390625 0.826171875 3.101806640625 0.822509765625 Q 3.052001953125 0.8203125 2.961181640625 0.8203125 Q 2.854248046875 0.8203125 2.7978515625 0.8232421875 Q 2.797119140625 0.82763671875 2.79638671875 0.83203125 Q 2.751708984375 1.04736328125 2.73046875 1.165283203125 Q 2.72314453125 1.20263671875 2.691650390625 1.20263671875 Q 2.65869140625 1.20263671875 2.6513671875 1.17041015625 Q 2.649169921875 1.160888671875 2.65576171875 1.140380859375 Q 2.662353515625 1.119873046875 2.6751708984375 1.0697021484375 Q 2.68798828125 1.01953125 2.7030029296875 0.9547119140625 Q 2.718017578125 0.889892578125 2.73486328125 0.81298828125 Q 2.751708984375 0.736083984375 2.769287109375 0.65478515625 Q 2.786865234375 0.573486328125 2.804443359375 0.4910888671875 Q 2.822021484375 0.40869140625 2.838134765625 0.331787109375 Q 2.854248046875 0.2548828125 2.8685302734375 0.1875 Q 2.8828125 0.1201171875 2.8916015625 0.08056640625 Q 2.905517578125 0.010986328125 2.9501953125 0.010986328125 M 2.811767578125 0.755126953125 Q 2.867431640625 0.758056640625 2.9619140625 0.758056640625 Q 3.040283203125 0.758056640625 3.087158203125 0.755859375 Q 3.07177734375 0.689208984375 3.056396484375 0.618896484375 Q 3.0322265625 0.509765625 3.01025390625 0.4072265625 Q 2.9736328125 0.239501953125 2.947265625 0.11279296875 Q 2.930419921875 0.197021484375 2.89892578125 0.342041015625 Q 2.85791015625 0.535400390625 2.836669921875 0.636474609375 Q 2.82421875 0.697265625 2.811767578125 0.755126953125 M 3.531005859375 0.013916015625 Q 3.551513671875 0.013916015625 3.794677734375 0.008056640625 Q 3.828369140625 0.008056640625 3.8408203125 0.03369140625 Q 3.84375 0.041015625 3.84375 0.050537109375 Q 3.84375 0.06005859375 3.832763671875 0.0699462890625 Q 3.82177734375 0.079833984375 3.791748046875 0.0791015625 Q 3.76171875 0.078369140625 3.7335205078125 0.076904296875 Q 3.705322265625 0.075439453125 3.68115234375 0.07470703125 Q 3.637939453125 0.0732421875 3.607177734375 0.073974609375 Q 3.601318359375 0.242431640625 3.601318359375 0.439453125 Q 3.601318359375 0.650390625 3.6016845703125 0.7283935546875 Q 3.60205078125 0.806396484375 3.603515625 0.87744140625 Q 3.605712890625 1.05908203125 3.60791015625 1.14697265625 Q 3.608642578125 1.171875 3.5965576171875 1.1839599609375 Q 3.58447265625 1.196044921875 3.5701904296875 1.196044921875 Q 3.555908203125 1.196044921875 3.5423583984375 1.1846923828125 Q 3.52880859375 1.17333984375 3.52880859375 1.150634765625 L 3.528076171875 1.0546875 L 3.535400390625 0.355224609375 Q 3.535400390625 0.15966796875 3.5302734375 0.073974609375 Q 3.491455078125 0.0732421875 3.43798828125 0.076904296875 Q 3.375 0.081298828125 3.3468017578125 0.0831298828125 Q 3.318603515625 0.0849609375 3.306884765625 0.073974609375 Q 3.295166015625 0.06298828125 3.295166015625 0.0487060546875 Q 3.295166015625 0.034423828125 3.306884765625 0.0205078125 Q 3.318603515625 0.006591796875 3.3446044921875 0.0076904296875 Q 3.37060546875 0.0087890625 3.3896484375 0.009521484375 Q 3.40869140625 0.01025390625 3.4229736328125 0.010986328125 Q 3.437255859375 0.01171875 3.4482421875 0.012451171875 Q 3.459228515625 0.01318359375 3.4705810546875 0.0135498046875 Q 3.48193359375 0.013916015625 3.49658203125 0.013916015625 L 3.531005859375 0.013916015625 M 4.0565185546875 0.2369384765625 Q 4.05615234375 0.27685546875 4.05615234375 0.55810546875 Q 4.05615234375 0.83935546875 4.06494140625 1.14990234375 Q 4.065673828125 1.17333984375 4.0513916015625 1.185791015625 Q 4.037109375 1.1982421875 4.0213623046875 1.1982421875 Q 4.005615234375 1.1982421875 3.9935302734375 1.187255859375 Q 3.9814453125 1.17626953125 3.98291015625 1.13818359375 Q 3.984375 1.10009765625 3.98583984375 1.03271484375 Q 3.9873046875 0.96533203125 3.98876953125 0.88916015625 Q 3.99169921875 0.73828125 3.99169921875 0.6075439453125 Q 3.99169921875 0.476806640625 3.9913330078125 0.4039306640625 Q 3.990966796875 0.3310546875 3.989501953125 0.26953125 Q 3.9873046875 0.13330078125 3.9814453125 0.052001953125 Q 3.979248046875 0.028564453125 3.9898681640625 0.0172119140625 Q 4.00048828125 0.005859375 4.017333984375 0.005859375 Q 4.0341796875 0.005859375 4.048828125 0.0172119140625 Q 4.0634765625 0.028564453125 4.0623779296875 0.0556640625 Q 4.061279296875 0.082763671875 4.0601806640625 0.109130859375 Q 4.05908203125 0.135498046875 4.0579833984375 0.166259765625 Q 4.056884765625 0.197021484375 4.0565185546875 0.2369384765625 M 4.5303955078125 0.19482421875 Q 4.513916015625 0.116455078125 4.505126953125 0.075439453125 Q 4.496337890625 0.034423828125 4.5106201171875 0.0201416015625 Q 4.52490234375 0.005859375 4.5439453125 0.005859375 Q 4.58056640625 0.005859375 4.5897216796875 0.0673828125 Q 4.598876953125 0.12890625 4.612060546875 0.2025146484375 Q 4.625244140625 0.276123046875 4.6402587890625 0.356689453125 Q 4.6552734375 0.437255859375 4.67138671875 0.5203857421875 Q 4.6875 0.603515625 4.7032470703125 0.6829833984375 Q 4.718994140625 0.762451171875 4.734375 0.834228515625 Q 4.749755859375 0.906005859375 4.762939453125 0.9638671875 Q 4.779052734375 1.037109375 4.789306640625 1.075927734375 Q 4.809814453125 0.992431640625 4.844970703125 0.856201171875 Q 4.8896484375 0.68408203125 4.9149169921875 0.58447265625 Q 4.940185546875 0.48486328125 4.962158203125 0.392578125 Q 5.009033203125 0.193359375 5.025146484375 0.082763671875 Q 5.03173828125 0.02783203125 5.07275390625 0.029296875 Q 5.10205078125 0.03076171875 5.110107421875 0.06884765625 Q 5.146728515625 0.234375 5.184814453125 0.42626953125 Q 5.222900390625 0.6181640625 5.2386474609375 0.696533203125 Q 5.25439453125 0.77490234375 5.2686767578125 0.8448486328125 Q 5.282958984375 0.914794921875 5.294677734375 0.97119140625 Q 5.31005859375 1.043701171875 5.321044921875 1.083251953125 Q 5.33349609375 1.03125 5.348876953125 0.966796875 Q 5.369384765625 0.87744140625 5.39208984375 0.77783203125 Q 5.414794921875 0.67822265625 5.438232421875 0.57421875 Q 5.461669921875 0.47021484375 5.482177734375 0.37353515625 Q 5.52685546875 0.16259765625 5.542236328125 0.0556640625 Q 5.55029296875 0 5.587646484375 0.0029296875 Q 5.619873046875 0.00439453125 5.619873046875 0.04248046875 Q 5.619873046875 0.05712890625 5.6103515625 0.097412109375 Q 5.600830078125 0.1376953125 5.5828857421875 0.2193603515625 Q 5.56494140625 0.301025390625 5.5458984375 0.3870849609375 Q 5.52685546875 0.47314453125 5.507080078125 0.5606689453125 Q 5.4873046875 0.648193359375 5.4686279296875 0.730224609375 Q 5.449951171875 0.812255859375 5.43310546875 0.885498046875 Q 5.416259765625 0.958740234375 5.40234375 1.015869140625 Q 5.37158203125 1.142578125 5.363525390625 1.160888671875 Q 5.347412109375 1.19970703125 5.3203125 1.19970703125 Q 5.2880859375 1.19970703125 5.277099609375 1.160888671875 Q 5.219970703125 0.95947265625 5.1793212890625 0.7576904296875 Q 5.138671875 0.555908203125 5.121826171875 0.47021484375 Q 5.10498046875 0.38671875 5.070556640625 0.199951171875 Q 5.0185546875 0.4365234375 4.981201171875 0.58447265625 Q 4.94091796875 0.743408203125 4.921875 0.82177734375 Q 4.874267578125 1.0166015625 4.842041015625 1.160888671875 Q 4.83837890625 1.17919921875 4.82373046875 1.189453125 Q 4.80908203125 1.19970703125 4.793701171875 1.19970703125 Q 4.757080078125 1.19970703125 4.74609375 1.160888671875 Q 4.677978515625 0.903076171875 4.6124267578125 0.588134765625 Q 4.546875 0.273193359375 4.5303955078125 0.19482421875 M 5.851318359375 0.796142578125 L 5.852783203125 1.05615234375 Q 5.852783203125 1.09130859375 5.852783203125 1.1162109375 Q 5.853515625 1.127197265625 5.853515625 1.13525390625 Q 6.0380859375 1.13525390625 6.098876953125 1.12939453125 Q 6.161865234375 1.122802734375 6.172119140625 1.125732421875 Q 6.182373046875 1.128662109375 6.189697265625 1.13525390625 Q 6.204345703125 1.1484375 6.204345703125 1.1641845703125 Q 6.204345703125 1.179931640625 6.1904296875 1.1912841796875 Q 6.176513671875 1.20263671875 6.151611328125 1.201171875 Q 6.031494140625 1.191650390625 5.934814453125 1.1978759765625 Q 5.838134765625 1.2041015625 5.826416015625 1.2059326171875 Q 5.814697265625 1.207763671875 5.8055419921875 1.2059326171875 Q 5.79638671875 1.2041015625 5.7890625 1.1982421875 Q 5.772216796875 1.185791015625 5.773681640625 1.16162109375 Q 5.78466796875 0.949951171875 5.78466796875 0.6932373046875 Q 5.78466796875 0.4365234375 5.7850341796875 0.3702392578125 Q 5.785400390625 0.303955078125 5.785400390625 0.2490234375 Q 5.783935546875 0.131103515625 5.7802734375 0.0823974609375 Q 5.776611328125 0.03369140625 5.7821044921875 0.024169921875 Q 5.78759765625 0.0146484375 5.795654296875 0.01025390625 Q 5.806640625 0.005126953125 5.823486328125 0.008056640625 Q 5.854248046875 0.01318359375 5.90478515625 0.01318359375 Q 6.002197265625 0.01318359375 6.0377197265625 0.0091552734375 Q 6.0732421875 0.005126953125 6.08349609375 0.0084228515625 Q 6.09375 0.01171875 6.100341796875 0.017578125 Q 6.114990234375 0.029296875 6.114990234375 0.046142578125 Q 6.114990234375 0.06298828125 6.101806640625 0.073974609375 Q 6.088623046875 0.0849609375 6.06591796875 0.0838623046875 Q 6.043212890625 0.082763671875 6.017578125 0.0809326171875 Q 5.991943359375 0.0791015625 5.962646484375 0.07763671875 Q 5.901123046875 0.075439453125 5.855712890625 0.0791015625 Q 5.855712890625 0.142822265625 5.85498046875 0.205810546875 Q 5.854248046875 0.280517578125 5.853515625 0.357421875 Q 5.851318359375 0.56396484375 5.851318359375 0.662109375 Q 5.94287109375 0.662109375 5.986083984375 0.65771484375 Q 6.032958984375 0.652587890625 6.0450439453125 0.662109375 Q 6.05712890625 0.671630859375 6.05712890625 0.687744140625 Q 6.05712890625 0.72802734375 5.981689453125 0.7265625 Q 5.96630859375 0.725830078125 5.953857421875 0.725830078125 L 5.89453125 0.72509765625 L 5.851318359375 0.72509765625 L 5.851318359375 0.796142578125 M 6.5537109375 0.577880859375 L 6.5830078125 0.572021484375 Q 6.693603515625 0.573486328125 6.755859375 0.6258544921875 Q 6.818115234375 0.67822265625 6.818115234375 0.77490234375 Q 6.818115234375 0.892822265625 6.747802734375 0.9931640625 Q 6.6533203125 1.128662109375 6.48193359375 1.18212890625 Q 6.37646484375 1.21435546875 6.34716796875 1.194580078125 Q 6.32958984375 1.182861328125 6.32958984375 1.15283203125 L 6.3369140625 0.5654296875 L 6.3369140625 0.485595703125 Q 6.3369140625 0.380859375 6.3336181640625 0.314208984375 Q 6.330322265625 0.24755859375 6.328125 0.202880859375 Q 6.325927734375 0.158203125 6.3240966796875 0.1212158203125 Q 6.322265625 0.084228515625 6.3270263671875 0.0743408203125 Q 6.331787109375 0.064453125 6.33984375 0.059326171875 Q 6.358154296875 0.046875 6.4427490234375 0.03076171875 Q 6.52734375 0.0146484375 6.573486328125 0.0146484375 Q 6.81298828125 0.0146484375 6.81298828125 0.216796875 Q 6.81298828125 0.380859375 6.64013671875 0.515625 Q 6.599853515625 0.547119140625 6.5537109375 0.577880859375 M 6.40283203125 1.125732421875 Q 6.463623046875 1.12353515625 6.5185546875 1.0986328125 Q 6.580810546875 1.0693359375 6.618896484375 1.0404052734375 Q 6.656982421875 1.011474609375 6.68701171875 0.973388671875 Q 6.7529296875 0.889892578125 6.7529296875 0.782958984375 Q 6.7529296875 0.70751953125 6.693603515625 0.667236328125 Q 6.64013671875 0.63134765625 6.558837890625 0.63134765625 Q 6.488525390625 0.63134765625 6.441650390625 0.6474609375 Q 6.413818359375 0.656982421875 6.397705078125 0.664306640625 Q 6.397705078125 0.68115234375 6.3984375 0.7001953125 Q 6.3984375 0.752197265625 6.3988037109375 0.813720703125 Q 6.399169921875 0.875244140625 6.39990234375 0.936767578125 Q 6.4013671875 1.0693359375 6.40283203125 1.125732421875 M 6.397705078125 0.59619140625 Q 6.498046875 0.57568359375 6.61083984375 0.47607421875 Q 6.69140625 0.405029296875 6.7265625 0.31787109375 Q 6.744140625 0.2724609375 6.744140625 0.22705078125 Q 6.744140625 0.181640625 6.7298583984375 0.1527099609375 Q 6.715576171875 0.123779296875 6.69140625 0.10546875 Q 6.645263671875 0.072509765625 6.564697265625 0.072509765625 Q 6.47314453125 0.072509765625 6.4013671875 0.10546875 Q 6.4013671875 0.114990234375 6.400634765625 0.13037109375 Q 6.39990234375 0.15673828125 6.399169921875 0.210205078125 Q 6.397705078125 0.317138671875 6.397705078125 0.44677734375 L 6.397705078125 0.59619140625 M 0.099609375 2.3793457031250003 Q 0.125244140625 2.3793457031250003 0.1318359375 2.3991210937500003 Q 0.138427734375 2.4188964843750003 0.138427734375 2.4643066406250003 Q 0.138427734375 2.5097167968750003 0.15087890625 2.5492675781250003 Q 0.163330078125 2.5888183593750003 0.185302734375 2.6159179687500003 Q 0.22998046875 2.6701171875000003 0.30908203125 2.6701171875000003 Q 0.38818359375 2.6701171875000003 0.43505859375 2.6118896484375003 Q 0.48193359375 2.5536621093750003 0.48193359375 2.4445312500000003 Q 0.48193359375 2.2987792968750003 0.358154296875 2.1852539062500003 Q 0.322998046875 2.1530273437500003 0.2860107421875 2.1215332031250003 Q 0.2490234375 2.0900390625000003 0.2138671875 2.0563476562500003 Q 0.1787109375 2.0226562500000003 0.15087890625 1.9816406250000003 Q 0.090087890625 1.8915527343750003 0.090087890625 1.7765625000000003 Q 0.090087890625 1.6586425781250003 0.15966796875 1.5861328125000003 Q 0.228515625 1.5143554687500003 0.33251953125 1.5143554687500003 Q 0.421875 1.5143554687500003 0.47900390625 1.5744140625000003 Q 0.542724609375 1.6432617187500003 0.53759765625 1.7648437500000003 Q 0.536865234375 1.7707031250000003 0.5372314453125 1.7772949218750003 Q 0.53759765625 1.7838867187500003 0.5357666015625 1.8021972656250003 Q 0.533935546875 1.8205078125000003 0.5203857421875 1.8347900390625003 Q 0.5068359375 1.8490722656250003 0.4910888671875 1.8490722656250003 Q 0.475341796875 1.8490722656250003 0.46435546875 1.8347900390625003 Q 0.453369140625 1.8205078125000003 0.45703125 1.7970703125000003 Q 0.466552734375 1.7436035156250003 0.466552734375 1.7161376953125003 Q 0.466552734375 1.6886718750000003 0.4566650390625 1.6637695312500003 Q 0.44677734375 1.6388671875000003 0.428466796875 1.6198242187500003 Q 0.388916015625 1.5795410156250003 0.325927734375 1.5795410156250003 Q 0.25634765625 1.5795410156250003 0.21240234375 1.6271484375000003 Q 0.1640625 1.6798828125000003 0.1640625 1.7567871093750003 Q 0.1640625 1.8336914062500003 0.180908203125 1.8809326171875003 Q 0.19775390625 1.9281738281250003 0.2252197265625 1.9662597656250003 Q 0.252685546875 2.0043457031250003 0.287841796875 2.0358398437500003 Q 0.322998046875 2.0673339843750003 0.3592529296875 2.0980957031250003 Q 0.3955078125 2.1288574218750003 0.4306640625 2.1614501953125003 Q 0.4658203125 2.1940429687500003 0.49365234375 2.2335937500000003 Q 0.554443359375 2.3229492187500003 0.554443359375 2.4394042968750003 Q 0.554443359375 2.5756347656250003 0.484130859375 2.6569335937500003 Q 0.41455078125 2.7375000000000003 0.298095703125 2.7375000000000003 Q 0.189697265625 2.7375000000000003 0.12158203125 2.6540039062500003 Q 0.05712890625 2.5756347656250003 0.05712890625 2.4774902343750003 Q 0.05712890625 2.3793457031250003 0.099609375 2.3793457031250003 M 0.996826171875 2.7323730468750003 Q 0.84375 2.7323730468750003 0.7716064453125 2.5741699218750003 Q 0.699462890625 2.4159667968750003 0.699462890625 2.1068847656250003 Q 0.699462890625 1.8629882812500003 0.7822265625 1.6974609375000003 Q 0.8232421875 1.6168945312500003 0.8818359375 1.5689208984375003 Q 0.9404296875 1.5209472656250003 1.0169677734375 1.5209472656250003 Q 1.093505859375 1.5209472656250003 1.150634765625 1.5608642578125003 Q 1.207763671875 1.6007812500000003 1.2451171875 1.6762207031250003 Q 1.318359375 1.8241699218750003 1.31982421875 2.1068847656250003 Q 1.3212890625 2.4042480468750003 1.23486328125 2.5697753906250003 Q 1.14990234375 2.7323730468750003 0.996826171875 2.7323730468750003 M 1.094970703125 1.6070068359375003 Q 1.060546875 1.5854003906250003 1.018798828125 1.5854003906250003 Q 0.97705078125 1.5854003906250003 0.943359375 1.6070068359375003 Q 0.90966796875 1.6286132812500003 0.8822021484375 1.6666992187500003 Q 0.854736328125 1.7047851562500003 0.8338623046875 1.7564208984375003 Q 0.81298828125 1.8080566406250003 0.79833984375 1.8673828125000003 Q 0.769775390625 1.9889648437500003 0.769775390625 2.1101806640625003 Q 0.769775390625 2.2313964843750003 0.7789306640625 2.3134277343750003 Q 0.7880859375 2.3954589843750003 0.80419921875 2.4551513671875003 Q 0.8203125 2.5148437500000003 0.8426513671875 2.5547607421875003 Q 0.864990234375 2.5946777343750003 0.890625 2.6188476562500003 Q 0.938232421875 2.6620605468750003 1.004150390625 2.6620605468750003 Q 1.198974609375 2.6620605468750003 1.24072265625 2.3039062500000003 Q 1.250244140625 2.2218750000000003 1.250244140625 2.1369140625000003 Q 1.250244140625 2.0519531250000003 1.2451171875 1.9882324218750003 Q 1.239990234375 1.9245117187500003 1.2286376953125 1.8655517578125003 Q 1.21728515625 1.8065917968750003 1.1993408203125 1.7553222656250003 Q 1.181396484375 1.7040527343750003 1.1553955078125 1.6663330078125003 Q 1.12939453125 1.6286132812500003 1.094970703125 1.6070068359375003 M 1.5380859375 1.5253417968750003 Q 1.582763671875 1.5253417968750003 1.582763671875 1.5890625000000003 Q 1.582763671875 1.6754882812500003 1.5816650390625 1.7710693359375003 Q 1.58056640625 1.8666503906250003 1.579833984375 1.9442871093750003 Q 1.5791015625 2.0219238281250003 1.578369140625 2.1251953125000003 Q 1.576904296875 2.3397949218750003 1.575439453125 2.6518066406250003 Q 1.72119140625 2.6547363281250003 1.855224609375 2.6415527343750003 Q 1.881591796875 2.6386230468750003 1.896240234375 2.6525390625000003 Q 1.910888671875 2.6664550781250003 1.910888671875 2.6818359375000003 Q 1.910888671875 2.6972167968750003 1.897705078125 2.7085693359375003 Q 1.884521484375 2.7199218750000003 1.85888671875 2.7184570312500003 Q 1.775390625 2.7118652343750003 1.6790771484375 2.7155273437500003 Q 1.582763671875 2.7191894531250003 1.56298828125 2.7221191406250003 Q 1.543212890625 2.7250488281250003 1.5340576171875 2.7232177734375003 Q 1.52490234375 2.7213867187500003 1.517578125 2.7155273437500003 Q 1.50146484375 2.7030761718750003 1.5029296875 2.6789062500000003 Q 1.51171875 2.5075195312500003 1.51171875 2.2310302734375003 Q 1.51171875 1.9545410156250003 1.5113525390625 1.8889892578125003 Q 1.510986328125 1.8234375000000003 1.509521484375 1.7685058593750003 Q 1.506591796875 1.6593750000000003 1.4970703125 1.5722167968750003 Q 1.494873046875 1.5487792968750003 1.508056640625 1.5370605468750003 Q 1.521240234375 1.5253417968750003 1.5380859375 1.5253417968750003 M 2.0712890625 2.3361328125000003 L 2.07275390625 2.0263183593750003 Q 2.07275390625 1.7626464843750003 2.055908203125 1.5795410156250003 Q 2.0537109375 1.5561035156250003 2.067626953125 1.5447509765625003 Q 2.08154296875 1.5333984375000003 2.0994873046875 1.5333984375000003 Q 2.117431640625 1.5333984375000003 2.132080078125 1.5447509765625003 Q 2.146728515625 1.5561035156250003 2.145263671875 1.5945556640625003 Q 2.143798828125 1.6330078125000003 2.1419677734375 1.6919677734375003 Q 2.14013671875 1.7509277343750003 2.138671875 1.8168457031250003 Q 2.1357421875 1.9486816406250003 2.1357421875 2.0556152343750003 Q 2.1357421875 2.1625488281250003 2.1361083984375 2.2017333984375003 Q 2.136474609375 2.2409179687500003 2.13720703125 2.2775390625000003 Q 2.140869140625 2.4723632812500003 2.1591796875 2.5243652343750003 Q 2.177490234375 2.5763671875000003 2.20166015625 2.6041992187500003 Q 2.25 2.6598632812500003 2.326171875 2.6598632812500003 Q 2.404541015625 2.6598632812500003 2.455810546875 2.6020019531250003 Q 2.508544921875 2.5419433593750003 2.517333984375 2.4342773437500003 Q 2.525390625 2.3024414062500003 2.525390625 2.2226074218750003 Q 2.525390625 2.1427734375000003 2.5250244140625 2.0845458984375003 Q 2.524658203125 2.0263183593750003 2.523193359375 1.9538085937500003 Q 2.517333984375 1.7428710937500003 2.511474609375 1.5751464843750003 Q 2.5107421875 1.5517089843750003 2.52392578125 1.5407226562500003 Q 2.537109375 1.5297363281250003 2.553955078125 1.5297363281250003 Q 2.57080078125 1.5297363281250003 2.584716796875 1.5407226562500003 Q 2.5986328125 1.5517089843750003 2.597900390625 1.5751464843750003 Q 2.594970703125 1.6842773437500003 2.5946044921875 1.7904785156250003 Q 2.59423828125 1.8966796875000003 2.593505859375 2.0014160156250003 Q 2.592041015625 2.2555664062500003 2.583984375 2.3665283203125003 Q 2.575927734375 2.4774902343750003 2.5594482421875 2.5338867187500003 Q 2.54296875 2.5902832031250003 2.51220703125 2.6342285156250003 Q 2.443359375 2.7323730468750003 2.326904296875 2.7323730468750003 Q 2.13427734375 2.7323730468750003 2.086669921875 2.5192382812500003 Q 2.0712890625 2.4525878906250003 2.0712890625 2.3705566406250003 L 2.0712890625 2.3361328125000003 M 2.943603515625 1.5312011718750003 Q 2.964111328125 1.5312011718750003 3.207275390625 1.5253417968750003 Q 3.240966796875 1.5253417968750003 3.25341796875 1.5509765625000003 Q 3.25634765625 1.5583007812500003 3.25634765625 1.5678222656250003 Q 3.25634765625 1.5773437500000003 3.245361328125 1.5872314453125003 Q 3.234375 1.5971191406250003 3.204345703125 1.5963867187500003 Q 3.17431640625 1.5956542968750003 3.1461181640625 1.5941894531250003 Q 3.117919921875 1.5927246093750003 3.09375 1.5919921875000003 Q 3.050537109375 1.5905273437500003 3.019775390625 1.5912597656250003 Q 3.013916015625 1.7597167968750003 3.013916015625 1.9567382812500003 Q 3.013916015625 2.1676757812500003 3.0142822265625 2.2456787109375003 Q 3.0146484375 2.3236816406250003 3.01611328125 2.3947265625000003 Q 3.018310546875 2.5763671875000003 3.0205078125 2.6642578125000003 Q 3.021240234375 2.6891601562500003 3.0091552734375 2.7012451171875003 Q 2.9970703125 2.7133300781250003 2.9827880859375 2.7133300781250003 Q 2.968505859375 2.7133300781250003 2.9549560546875 2.7019775390625003 Q 2.94140625 2.6906250000000003 2.94140625 2.6679199218750003 L 2.940673828125 2.5719726562500003 L 2.947998046875 1.8725097656250003 Q 2.947998046875 1.6769531250000003 2.94287109375 1.5912597656250003 Q 2.904052734375 1.5905273437500003 2.8505859375 1.5941894531250003 Q 2.78759765625 1.5985839843750003 2.7593994140625 1.6004150390625003 Q 2.731201171875 1.6022460937500003 2.719482421875 1.5912597656250003 Q 2.707763671875 1.5802734375000003 2.707763671875 1.5659912109375003 Q 2.707763671875 1.5517089843750003 2.719482421875 1.5377929687500003 Q 2.731201171875 1.5238769531250003 2.7572021484375 1.5249755859375003 Q 2.783203125 1.5260742187500003 2.80224609375 1.5268066406250003 Q 2.8212890625 1.5275390625000003 2.8355712890625 1.5282714843750003 Q 2.849853515625 1.5290039062500003 2.86083984375 1.5297363281250003 Q 2.871826171875 1.5304687500000003 2.8831787109375 1.5308349609375003 Q 2.89453125 1.5312011718750003 2.9091796875 1.5312011718750003 L 2.943603515625 1.5312011718750003 M 3.4691162109375 1.7542236328125003 Q 3.46875 1.7941406250000003 3.46875 2.0753906250000003 Q 3.46875 2.3566406250000003 3.4775390625 2.6671875000000003 Q 3.478271484375 2.6906250000000003 3.4639892578125 2.7030761718750003 Q 3.44970703125 2.7155273437500003 3.4339599609375 2.7155273437500003 Q 3.418212890625 2.7155273437500003 3.4061279296875 2.7045410156250003 Q 3.39404296875 2.6935546875000003 3.3955078125 2.6554687500000003 Q 3.39697265625 2.6173828125000003 3.3984375 2.5500000000000003 Q 3.39990234375 2.4826171875000003 3.4013671875 2.4064453125000003 Q 3.404296875 2.2555664062500003 3.404296875 2.1248291015625003 Q 3.404296875 1.9940917968750003 3.4039306640625 1.9212158203125003 Q 3.403564453125 1.8483398437500003 3.402099609375 1.7868164062500003 Q 3.39990234375 1.6505859375000003 3.39404296875 1.5692871093750003 Q 3.391845703125 1.5458496093750003 3.4024658203125 1.5344970703125003 Q 3.4130859375 1.5231445312500003 3.429931640625 1.5231445312500003 Q 3.44677734375 1.5231445312500003 3.46142578125 1.5344970703125003 Q 3.47607421875 1.5458496093750003 3.4749755859375 1.5729492187500003 Q 3.473876953125 1.6000488281250003 3.4727783203125 1.6264160156250003 Q 3.4716796875 1.6527832031250003 3.4705810546875 1.6835449218750003 Q 3.469482421875 1.7143066406250003 3.4691162109375 1.7542236328125003 M 3.977783203125 2.7323730468750003 Q 3.82470703125 2.7323730468750003 3.7525634765625 2.5741699218750003 Q 3.680419921875 2.4159667968750003 3.680419921875 2.1068847656250003 Q 3.680419921875 1.8629882812500003 3.76318359375 1.6974609375000003 Q 3.80419921875 1.6168945312500003 3.86279296875 1.5689208984375003 Q 3.92138671875 1.5209472656250003 3.9979248046875 1.5209472656250003 Q 4.074462890625 1.5209472656250003 4.131591796875 1.5608642578125003 Q 4.188720703125 1.6007812500000003 4.22607421875 1.6762207031250003 Q 4.29931640625 1.8241699218750003 4.30078125 2.1068847656250003 Q 4.30224609375 2.4042480468750003 4.2158203125 2.5697753906250003 Q 4.130859375 2.7323730468750003 3.977783203125 2.7323730468750003 M 4.075927734375 1.6070068359375003 Q 4.04150390625 1.5854003906250003 3.999755859375 1.5854003906250003 Q 3.9580078125 1.5854003906250003 3.92431640625 1.6070068359375003 Q 3.890625 1.6286132812500003 3.8631591796875 1.6666992187500003 Q 3.835693359375 1.7047851562500003 3.8148193359375 1.7564208984375003 Q 3.7939453125 1.8080566406250003 3.779296875 1.8673828125000003 Q 3.750732421875 1.9889648437500003 3.750732421875 2.1101806640625003 Q 3.750732421875 2.2313964843750003 3.7598876953125 2.3134277343750003 Q 3.76904296875 2.3954589843750003 3.78515625 2.4551513671875003 Q 3.80126953125 2.5148437500000003 3.8236083984375 2.5547607421875003 Q 3.845947265625 2.5946777343750003 3.87158203125 2.6188476562500003 Q 3.919189453125 2.6620605468750003 3.985107421875 2.6620605468750003 Q 4.179931640625 2.6620605468750003 4.2216796875 2.3039062500000003 Q 4.231201171875 2.2218750000000003 4.231201171875 2.1369140625000003 Q 4.231201171875 2.0519531250000003 4.22607421875 1.9882324218750003 Q 4.220947265625 1.9245117187500003 4.2095947265625 1.8655517578125003 Q 4.1982421875 1.8065917968750003 4.1802978515625 1.7553222656250003 Q 4.162353515625 1.7040527343750003 4.1363525390625 1.6663330078125003 Q 4.1103515625 1.6286132812500003 4.075927734375 1.6070068359375003 M 5.0390625 1.5678222656250003 Q 5.03466796875 1.9325683593750003 5.03466796875 2.0838134765625003 Q 5.03466796875 2.2350585937500003 5.0350341796875 2.3057373046875003 Q 5.035400390625 2.3764160156250003 5.0361328125 2.4401367187500003 Q 5.03759765625 2.5749023437500003 5.0394287109375 2.6243408203125003 Q 5.041259765625 2.6737792968750003 5.036865234375 2.6833007812500003 Q 5.032470703125 2.6928222656250003 5.025146484375 2.6994140625000003 Q 4.9951171875 2.7265136718750003 4.96142578125 2.7045410156250003 Q 4.9482421875 2.6957519531250003 4.9423828125 2.6781738281250003 Q 4.8779296875 2.4892089843750003 4.787109375 2.2676513671875003 Q 4.6962890625 2.0460937500000003 4.660400390625 1.9545410156250003 Q 4.59521484375 1.7882812500000003 4.546875 1.6498535156250003 L 4.556396484375 2.6715820312500003 Q 4.556396484375 2.6942871093750003 4.544677734375 2.7052734375000003 Q 4.532958984375 2.7162597656250003 4.5179443359375 2.7162597656250003 Q 4.5029296875 2.7162597656250003 4.4901123046875 2.7041748046875003 Q 4.477294921875 2.6920898437500003 4.47802734375 2.6679199218750003 Q 4.4853515625 2.4665039062500003 4.4853515625 2.2086914062500003 L 4.4853515625 1.7743652343750003 Q 4.4853515625 1.6608398437500003 4.48388671875 1.5788085937500003 Q 4.48388671875 1.5517089843750003 4.5003662109375 1.5374267578125003 Q 4.516845703125 1.5231445312500003 4.53515625 1.5231445312500003 Q 4.576171875 1.5231445312500003 4.58935546875 1.5619628906250003 Q 4.6025390625 1.6007812500000003 4.626708984375 1.6663330078125003 Q 4.65087890625 1.7318847656250003 4.680908203125 1.8120849609375003 Q 4.7109375 1.8922851562500003 4.745361328125 1.9820068359375003 Q 4.77978515625 2.0717285156250003 4.814208984375 2.1607177734375003 Q 4.8486328125 2.2497070312500003 4.880859375 2.3332031250000003 Q 4.9130859375 2.4166992187500003 4.939453125 2.4848144531250003 Q 4.9658203125 2.5529296875000003 4.984130859375 2.6012695312500003 Q 4.98486328125 2.6034667968750003 4.985595703125 2.6049316406250003 Q 4.979736328125 2.4613769531250003 4.97607421875 2.2921875000000003 Q 4.972412109375 2.0863769531250003 4.9698486328125 1.9838378906250003 Q 4.96728515625 1.8812988281250003 4.9647216796875 1.7761962890625003 Q 4.962158203125 1.6710937500000003 4.95849609375 1.5678222656250003 Q 4.95849609375 1.5443847656250003 4.9713134765625 1.5330322265625003 Q 4.984130859375 1.5216796875000003 4.99951171875 1.5216796875000003 Q 5.014892578125 1.5216796875000003 5.0269775390625 1.5330322265625003 Q 5.0390625 1.5443847656250003 5.0390625 1.5678222656250003 M 5.250732421875 2.3793457031250003 Q 5.2763671875 2.3793457031250003 5.282958984375 2.3991210937500003 Q 5.28955078125 2.4188964843750003 5.28955078125 2.4643066406250003 Q 5.28955078125 2.5097167968750003 5.302001953125 2.5492675781250003 Q 5.314453125 2.5888183593750003 5.33642578125 2.6159179687500003 Q 5.381103515625 2.6701171875000003 5.460205078125 2.6701171875000003 Q 5.539306640625 2.6701171875000003 5.586181640625 2.6118896484375003 Q 5.633056640625 2.5536621093750003 5.633056640625 2.4445312500000003 Q 5.633056640625 2.2987792968750003 5.50927734375 2.1852539062500003 Q 5.47412109375 2.1530273437500003 5.4371337890625 2.1215332031250003 Q 5.400146484375 2.0900390625000003 5.364990234375 2.0563476562500003 Q 5.329833984375 2.0226562500000003 5.302001953125 1.9816406250000003 Q 5.2412109375 1.8915527343750003 5.2412109375 1.7765625000000003 Q 5.2412109375 1.6586425781250003 5.310791015625 1.5861328125000003 Q 5.379638671875 1.5143554687500003 5.483642578125 1.5143554687500003 Q 5.572998046875 1.5143554687500003 5.630126953125 1.5744140625000003 Q 5.69384765625 1.6432617187500003 5.688720703125 1.7648437500000003 Q 5.68798828125 1.7707031250000003 5.6883544921875 1.7772949218750003 Q 5.688720703125 1.7838867187500003 5.6868896484375 1.8021972656250003 Q 5.68505859375 1.8205078125000003 5.6715087890625 1.8347900390625003 Q 5.657958984375 1.8490722656250003 5.6422119140625 1.8490722656250003 Q 5.62646484375 1.8490722656250003 5.615478515625 1.8347900390625003 Q 5.6044921875 1.8205078125000003 5.608154296875 1.7970703125000003 Q 5.61767578125 1.7436035156250003 5.61767578125 1.7161376953125003 Q 5.61767578125 1.6886718750000003 5.6077880859375 1.6637695312500003 Q 5.597900390625 1.6388671875000003 5.57958984375 1.6198242187500003 Q 5.5400390625 1.5795410156250003 5.47705078125 1.5795410156250003 Q 5.407470703125 1.5795410156250003 5.363525390625 1.6271484375000003 Q 5.315185546875 1.6798828125000003 5.315185546875 1.7567871093750003 Q 5.315185546875 1.8336914062500003 5.33203125 1.8809326171875003 Q 5.348876953125 1.9281738281250003 5.3763427734375 1.9662597656250003 Q 5.40380859375 2.0043457031250003 5.43896484375 2.0358398437500003 Q 5.47412109375 2.0673339843750003 5.5103759765625 2.0980957031250003 Q 5.546630859375 2.1288574218750003 5.581787109375 2.1614501953125003 Q 5.616943359375 2.1940429687500003 5.644775390625 2.2335937500000003 Q 5.70556640625 2.3229492187500003 5.70556640625 2.4394042968750003 Q 5.70556640625 2.5756347656250003 5.63525390625 2.6569335937500003 Q 5.565673828125 2.7375000000000003 5.44921875 2.7375000000000003 Q 5.3408203125 2.7375000000000003 5.272705078125 2.6540039062500003 Q 5.208251953125 2.5756347656250003 5.208251953125 2.4774902343750003 Q 5.208251953125 2.3793457031250003 5.250732421875 2.3793457031250003 M 6.2490234375 2.3925292968750003 Q 6.2548828125 2.5690429687500003 6.2578125 2.6642578125000003 Q 6.258544921875 2.6891601562500003 6.2457275390625 2.7012451171875003 Q 6.23291015625 2.7133300781250003 6.2178955078125 2.7133300781250003 Q 6.202880859375 2.7133300781250003 6.191162109375 2.7019775390625003 Q 6.179443359375 2.6906250000000003 6.179443359375 2.6657226562500003 L 6.179443359375 2.5001953125000003 L 6.1787109375 2.2731445312500003 L 6.1787109375 2.0695312500000003 Q 6.1787109375 1.8703125000000003 6.1754150390625 1.8161132812500003 Q 6.172119140625 1.7619140625000003 6.170654296875 1.7340820312500003 Q 6.169189453125 1.7062500000000003 6.1669921875 1.6773193359375003 Q 6.164794921875 1.6483886718750003 6.1629638671875 1.6205566406250003 Q 6.1611328125 1.5927246093750003 6.1666259765625 1.5824707031250003 Q 6.172119140625 1.5722167968750003 6.18017578125 1.5674560546875003 Q 6.188232421875 1.5626953125000003 6.197021484375 1.5612304687500003 Q 6.205810546875 1.5597656250000003 6.234375 1.5524414062500003 Q 6.324462890625 1.5304687500000003 6.39404296875 1.5304687500000003 Q 6.463623046875 1.5304687500000003 6.511962890625 1.5480468750000003 Q 6.560302734375 1.5656250000000003 6.5947265625 1.6015136718750003 Q 6.66796875 1.6769531250000003 6.66796875 1.8168457031250003 Q 6.66796875 2.0072753906250003 6.53466796875 2.1662109375000003 Q 6.427001953125 2.2943847656250003 6.2490234375 2.3925292968750003 M 6.246826171875 2.3229492187500003 Q 6.6005859375 2.1310546875000003 6.6005859375 1.8234375000000003 Q 6.6005859375 1.6542480468750003 6.4833984375 1.6059082031250003 Q 6.396240234375 1.5700195312500003 6.271728515625 1.6125000000000003 Q 6.257080078125 1.6176269531250003 6.243896484375 1.6227539062500003 Q 6.23876953125 1.7509277343750003 6.23876953125 1.8864257812500003 L 6.23876953125 2.1076171875000003 Q 6.23876953125 2.1215332031250003 6.239501953125 2.1347167968750003 Q 6.240234375 2.1479003906250003 6.2406005859375 2.1629150390625003 Q 6.240966796875 2.1779296875000003 6.2420654296875 2.2017333984375003 Q 6.2431640625 2.2255371093750003 6.24462890625 2.2614257812500003 Q 6.245361328125 2.2870605468750003 6.246826171875 2.3229492187500003 M 7.3201904296875 1.5396240234375003 Q 7.333740234375 1.5546386718750003 7.3253173828125 1.5832031250000003 Q 7.31689453125 1.6117675781250003 7.3055419921875 1.6608398437500003 Q 7.294189453125 1.7099121093750003 7.2802734375 1.7725341796875003 Q 7.266357421875 1.8351562500000003 7.250244140625 1.9087646484375003 Q 7.234130859375 1.9823730468750003 7.2169189453125 2.0614746093750003 Q 7.19970703125 2.1405761718750003 7.1817626953125 2.2229736328125003 Q 7.163818359375 2.3053710937500003 7.1455078125 2.3852050781250003 Q 7.1044921875 2.5639160156250003 7.074462890625 2.6789062500000003 Q 7.06494140625 2.7177246093750003 7.027587890625 2.7177246093750003 Q 6.988037109375 2.7177246093750003 6.9755859375 2.6789062500000003 Q 6.96533203125 2.6459472656250003 6.9320068359375 2.4866455078125003 Q 6.898681640625 2.3273437500000003 6.8807373046875 2.2449462890625003 Q 6.86279296875 2.1625488281250003 6.8433837890625 2.0750244140625003 Q 6.823974609375 1.9875000000000003 6.803466796875 1.9010742187500003 Q 6.760986328125 1.7230957031250003 6.7386474609375 1.6487548828125003 Q 6.71630859375 1.5744140625000003 6.71630859375 1.5586669921875003 Q 6.71630859375 1.5429199218750003 6.7269287109375 1.5326660156250003 Q 6.737548828125 1.5224121093750003 6.7540283203125 1.5216796875000003 Q 6.7705078125 1.5209472656250003 6.7869873046875 1.5326660156250003 Q 6.803466796875 1.5443847656250003 6.8104248046875 1.5824707031250003 Q 6.8173828125 1.6205566406250003 6.8294677734375 1.6828125000000003 Q 6.841552734375 1.7450683593750003 6.856201171875 1.8172119140625003 Q 6.870849609375 1.8893554687500003 6.8873291015625 1.9680908203125003 Q 6.90380859375 2.0468261718750003 6.920654296875 2.1255615234375003 Q 6.9375 2.2042968750000003 6.954345703125 2.2801025390625003 Q 6.97119140625 2.3559082031250003 6.9873046875 2.4225585937500003 Q 7.01220703125 2.5302246093750003 7.03125 2.5983398437500003 Q 7.048828125 2.5492675781250003 7.06787109375 2.4635742187500003 Q 7.094970703125 2.3397949218750003 7.10595703125 2.2863281250000003 Q 7.119140625 2.2240722656250003 7.13818359375 2.1204345703125003 Q 7.1572265625 2.0167968750000003 7.171142578125 1.9461181640625003 Q 7.18505859375 1.8754394531250003 7.197509765625 1.8135498046875003 Q 7.2099609375 1.7516601562500003 7.2213134765625 1.6963623046875003 Q 7.232666015625 1.6410644531250003 7.2388916015625 1.6011474609375003 Q 7.2451171875 1.5612304687500003 7.2557373046875 1.5429199218750003 Q 7.266357421875 1.5246093750000003 7.2864990234375 1.5246093750000003 Q 7.306640625 1.5246093750000003 7.3201904296875 1.5396240234375003 M 7.595947265625 1.5312011718750003 Q 7.616455078125 1.5312011718750003 7.859619140625 1.5253417968750003 Q 7.893310546875 1.5253417968750003 7.90576171875 1.5509765625000003 Q 7.90869140625 1.5583007812500003 7.90869140625 1.5678222656250003 Q 7.90869140625 1.5773437500000003 7.897705078125 1.5872314453125003 Q 7.88671875 1.5971191406250003 7.856689453125 1.5963867187500003 Q 7.82666015625 1.5956542968750003 7.7984619140625 1.5941894531250003 Q 7.770263671875 1.5927246093750003 7.74609375 1.5919921875000003 Q 7.702880859375 1.5905273437500003 7.672119140625 1.5912597656250003 Q 7.666259765625 1.7597167968750003 7.666259765625 1.9567382812500003 Q 7.666259765625 2.1676757812500003 7.6666259765625 2.2456787109375003 Q 7.6669921875 2.3236816406250003 7.66845703125 2.3947265625000003 Q 7.670654296875 2.5763671875000003 7.6728515625 2.6642578125000003 Q 7.673583984375 2.6891601562500003 7.6614990234375 2.7012451171875003 Q 7.6494140625 2.7133300781250003 7.6351318359375 2.7133300781250003 Q 7.620849609375 2.7133300781250003 7.6072998046875 2.7019775390625003 Q 7.59375 2.6906250000000003 7.59375 2.6679199218750003 L 7.593017578125 2.5719726562500003 L 7.600341796875 1.8725097656250003 Q 7.600341796875 1.6769531250000003 7.59521484375 1.5912597656250003 Q 7.556396484375 1.5905273437500003 7.5029296875 1.5941894531250003 Q 7.43994140625 1.5985839843750003 7.4117431640625 1.6004150390625003 Q 7.383544921875 1.6022460937500003 7.371826171875 1.5912597656250003 Q 7.360107421875 1.5802734375000003 7.360107421875 1.5659912109375003 Q 7.360107421875 1.5517089843750003 7.371826171875 1.5377929687500003 Q 7.383544921875 1.5238769531250003 7.4095458984375 1.5249755859375003 Q 7.435546875 1.5260742187500003 7.45458984375 1.5268066406250003 Q 7.4736328125 1.5275390625000003 7.4879150390625 1.5282714843750003 Q 7.502197265625 1.5290039062500003 7.51318359375 1.5297363281250003 Q 7.524169921875 1.5304687500000003 7.5355224609375 1.5308349609375003 Q 7.546875 1.5312011718750003 7.5615234375 1.5312011718750003 L 7.595947265625 1.5312011718750003 M 8.135009765625 2.6481445312500003 Q 8.140869140625 2.6598632812500003 8.140869140625 2.6767089843750003 Q 8.140869140625 2.6935546875000003 8.13427734375 2.7056396484375003 Q 8.127685546875 2.7177246093750003 8.117431640625 2.7250488281250003 Q 8.09765625 2.7382324218750003 8.070556640625 2.7382324218750003 Q 8.03173828125 2.7382324218750003 8.014892578125 2.7030761718750003 Q 8.009765625 2.6913574218750003 8.009765625 2.6759765625000003 Q 8.009765625 2.6320312500000003 8.05224609375 2.6173828125000003 Q 8.06396484375 2.6137207031250003 8.0753173828125 2.6137207031250003 Q 8.086669921875 2.6137207031250003 8.098388671875 2.6173828125000003 Q 8.110107421875 2.6210449218750003 8.11962890625 2.6287353515625003 Q 8.129150390625 2.6364257812500003 8.135009765625 2.6481445312500003 M 8.6630859375 1.5253417968750003 Q 8.707763671875 1.5253417968750003 8.707763671875 1.5890625000000003 Q 8.707763671875 1.6754882812500003 8.7066650390625 1.7710693359375003 Q 8.70556640625 1.8666503906250003 8.704833984375 1.9442871093750003 Q 8.7041015625 2.0219238281250003 8.703369140625 2.1251953125000003 Q 8.701904296875 2.3397949218750003 8.700439453125 2.6518066406250003 Q 8.84619140625 2.6547363281250003 8.980224609375 2.6415527343750003 Q 9.006591796875 2.6386230468750003 9.021240234375 2.6525390625000003 Q 9.035888671875 2.6664550781250003 9.035888671875 2.6818359375000003 Q 9.035888671875 2.6972167968750003 9.022705078125 2.7085693359375003 Q 9.009521484375 2.7199218750000003 8.98388671875 2.7184570312500003 Q 8.900390625 2.7118652343750003 8.8040771484375 2.7155273437500003 Q 8.707763671875 2.7191894531250003 8.68798828125 2.7221191406250003 Q 8.668212890625 2.7250488281250003 8.6590576171875 2.7232177734375003 Q 8.64990234375 2.7213867187500003 8.642578125 2.7155273437500003 Q 8.62646484375 2.7030761718750003 8.6279296875 2.6789062500000003 Q 8.63671875 2.5075195312500003 8.63671875 2.2310302734375003 Q 8.63671875 1.9545410156250003 8.6363525390625 1.8889892578125003 Q 8.635986328125 1.8234375000000003 8.634521484375 1.7685058593750003 Q 8.631591796875 1.6593750000000003 8.6220703125 1.5722167968750003 Q 8.619873046875 1.5487792968750003 8.633056640625 1.5370605468750003 Q 8.646240234375 1.5253417968750003 8.6630859375 1.5253417968750003 M 9.3046875 1.5312011718750003 Q 9.3251953125 1.5312011718750003 9.568359375 1.5253417968750003 Q 9.60205078125 1.5253417968750003 9.614501953125 1.5509765625000003 Q 9.617431640625 1.5583007812500003 9.617431640625 1.5678222656250003 Q 9.617431640625 1.5773437500000003 9.6064453125 1.5872314453125003 Q 9.595458984375 1.5971191406250003 9.5654296875 1.5963867187500003 Q 9.535400390625 1.5956542968750003 9.5072021484375 1.5941894531250003 Q 9.47900390625 1.5927246093750003 9.454833984375 1.5919921875000003 Q 9.41162109375 1.5905273437500003 9.380859375 1.5912597656250003 Q 9.375 1.7597167968750003 9.375 1.9567382812500003 Q 9.375 2.1676757812500003 9.3753662109375 2.2456787109375003 Q 9.375732421875 2.3236816406250003 9.377197265625 2.3947265625000003 Q 9.37939453125 2.5763671875000003 9.381591796875 2.6642578125000003 Q 9.38232421875 2.6891601562500003 9.3702392578125 2.7012451171875003 Q 9.358154296875 2.7133300781250003 9.3438720703125 2.7133300781250003 Q 9.32958984375 2.7133300781250003 9.3160400390625 2.7019775390625003 Q 9.302490234375 2.6906250000000003 9.302490234375 2.6679199218750003 L 9.3017578125 2.5719726562500003 L 9.30908203125 1.8725097656250003 Q 9.30908203125 1.6769531250000003 9.303955078125 1.5912597656250003 Q 9.26513671875 1.5905273437500003 9.211669921875 1.5941894531250003 Q 9.148681640625 1.5985839843750003 9.1204833984375 1.6004150390625003 Q 9.09228515625 1.6022460937500003 9.08056640625 1.5912597656250003 Q 9.06884765625 1.5802734375000003 9.06884765625 1.5659912109375003 Q 9.06884765625 1.5517089843750003 9.08056640625 1.5377929687500003 Q 9.09228515625 1.5238769531250003 9.1182861328125 1.5249755859375003 Q 9.144287109375 1.5260742187500003 9.163330078125 1.5268066406250003 Q 9.182373046875 1.5275390625000003 9.1966552734375 1.5282714843750003 Q 9.2109375 1.5290039062500003 9.221923828125 1.5297363281250003 Q 9.23291015625 1.5304687500000003 9.2442626953125 1.5308349609375003 Q 9.255615234375 1.5312011718750003 9.270263671875 1.5312011718750003 L 9.3046875 1.5312011718750003 M 10.248046875 1.8058593750000003 Q 10.271484375 1.8952148437500003 10.271484375 2.0032470703125003 Q 10.271484375 2.1112792968750003 10.253173828125 2.2039306640625003 Q 10.23486328125 2.2965820312500003 10.201904296875 2.3753173828125003 Q 10.1689453125 2.4540527343750003 10.1231689453125 2.5174072265625003 Q 10.077392578125 2.5807617187500003 10.021728515625 2.6254394531250003 Q 9.90673828125 2.7177246093750003 9.77197265625 2.7177246093750003 Q 9.750732421875 2.7177246093750003 9.7445068359375 2.7041748046875003 Q 9.73828125 2.6906250000000003 9.73828125 2.6715820312500003 L 9.73828125 2.6085937500000003 Q 9.73828125 2.5631835937500003 9.7379150390625 2.4983642578125003 Q 9.737548828125 2.4335449218750003 9.7371826171875 2.3540771484375003 Q 9.73681640625 2.2746093750000003 9.7357177734375 2.1892822265625003 Q 9.734619140625 2.1039550781250003 9.7335205078125 2.0171630859375003 Q 9.732421875 1.9303710937500003 9.73095703125 1.8512695312500003 Q 9.7265625 1.6872070312500003 9.720703125 1.5927246093750003 Q 9.717041015625 1.5429199218750003 9.7646484375 1.5370605468750003 Q 9.8349609375 1.5268066406250003 9.88037109375 1.5268066406250003 Q 10.1748046875 1.5268066406250003 10.248046875 1.8058593750000003 M 9.8115234375 2.6488769531250003 Q 9.894287109375 2.6459472656250003 9.976318359375 2.5778320312500003 Q 10.128662109375 2.4511230468750003 10.179931640625 2.1999023437500003 Q 10.197509765625 2.1134765625000003 10.197509765625 2.0039794921875003 Q 10.197509765625 1.8944824218750003 10.1707763671875 1.8135498046875003 Q 10.14404296875 1.7326171875000003 10.1015625 1.6842773437500003 Q 10.021728515625 1.5934570312500003 9.895751953125 1.5934570312500003 Q 9.8408203125 1.5934570312500003 9.806396484375 1.6051757812500003 Q 9.800537109375 1.6806152343750003 9.800537109375 1.8168457031250003 Q 9.800537109375 1.9801757812500003 9.80126953125 2.0666015625000003 Q 9.802001953125 2.1530273437500003 9.8031005859375 2.2357910156250003 Q 9.80419921875 2.3185546875000003 9.8052978515625 2.3943603515625003 Q 9.806396484375 2.4701660156250003 9.807861328125 2.5302246093750003 Q 9.81005859375 2.6056640625000003 9.8115234375 2.6488769531250003 M 10.559326171875 2.6481445312500003 Q 10.565185546875 2.6598632812500003 10.565185546875 2.6767089843750003 Q 10.565185546875 2.6935546875000003 10.55859375 2.7056396484375003 Q 10.552001953125 2.7177246093750003 10.541748046875 2.7250488281250003 Q 10.52197265625 2.7382324218750003 10.494873046875 2.7382324218750003 Q 10.4560546875 2.7382324218750003 10.439208984375 2.7030761718750003 Q 10.43408203125 2.6913574218750003 10.43408203125 2.6759765625000003 Q 10.43408203125 2.6320312500000003 10.4765625 2.6173828125000003 Q 10.48828125 2.6137207031250003 10.4996337890625 2.6137207031250003 Q 10.510986328125 2.6137207031250003 10.522705078125 2.6173828125000003 Q 10.534423828125 2.6210449218750003 10.5439453125 2.6287353515625003 Q 10.553466796875 2.6364257812500003 10.559326171875 2.6481445312500003" fill="#102036" fill-rule="nonzero"></path></g><g><path d=" M 0.024230769230769233 3.2798003680889423 Q 0.024230769230769233 3.2423003680889426 0.03721153846153846 3.20624267578125 Q 0.050192307692307696 3.1701849834735576 0.07500000000000001 3.1404734450120193 Q 0.09980769230769232 3.110761906550481 0.13615384615384615 3.093165752704327 Q 0.17250000000000001 3.075569598858173 0.21865384615384617 3.075569598858173 Q 0.2734615384615385 3.075569598858173 0.3124038461538462 3.100665752704327 Q 0.35134615384615386 3.1257619065504807 0.36980769230769234 3.1649926757812503 L 0.3380769230769231 3.1846080603966347 Q 0.32480769230769235 3.15749267578125 0.3046153846153846 3.1416272911658654 Q 0.28442307692307695 3.1257619065504807 0.2616346153846154 3.118838829627404 Q 0.23884615384615387 3.111915752704327 0.21634615384615385 3.111915752704327 Q 0.17942307692307694 3.111915752704327 0.15115384615384617 3.1266272911658657 Q 0.1228846153846154 3.141338829627404 0.10355769230769232 3.165858060396635 Q 0.08423076923076923 3.1903772911658654 0.07442307692307693 3.2206657527043268 Q 0.06461538461538462 3.2509542142427885 0.06461538461538462 3.282108060396635 Q 0.06461538461538462 3.3161465219350963 0.07615384615384616 3.3473003680889426 Q 0.0876923076923077 3.3784542142427885 0.10846153846153847 3.4023965219350965 Q 0.12923076923076923 3.426338829627404 0.15721153846153849 3.440473445012019 Q 0.1851923076923077 3.4546080603966347 0.21807692307692308 3.4546080603966347 Q 0.24115384615384616 3.4546080603966347 0.2653846153846154 3.446531137319712 Q 0.28961538461538466 3.4384542142427885 0.31067307692307694 3.4217234450120193 Q 0.3317307692307693 3.40499267578125 0.34442307692307694 3.3784542142427885 L 0.37788461538461543 3.3957619065504807 Q 0.3651923076923077 3.426338829627404 0.3386538461538462 3.447684983473558 Q 0.31211538461538463 3.469031137319712 0.2795192307692308 3.4799926757812503 Q 0.24692307692307694 3.4909542142427887 0.2157692307692308 3.4909542142427887 Q 0.17365384615384616 3.4909542142427887 0.13846153846153847 3.4727811373197115 Q 0.10326923076923078 3.4546080603966347 0.07759615384615386 3.4243195988581734 Q 0.051923076923076926 3.3940311373197116 0.03807692307692308 3.35624267578125 Q 0.024230769230769233 3.3184542142427884 0.024230769230769233 3.2798003680889423 M 0.6074876051682693 3.4903772911658657 Q 0.5642183743990385 3.4903772911658657 0.5290260667067308 3.473069598858173 Q 0.4938337590144231 3.4557619065504808 0.4684491436298077 3.4260503680889425 Q 0.4430645282451923 3.3963388296274037 0.4292183743990385 3.3591272911658656 Q 0.41537222055288464 3.321915752704327 0.41537222055288464 3.282684983473558 Q 0.41537222055288464 3.241723445012019 0.42979529747596157 3.204511906550481 Q 0.4442183743990385 3.1673003680889424 0.4704683743990385 3.138165752704327 Q 0.4967183743990385 3.1090311373197115 0.5319106820913462 3.0920119065504807 Q 0.5671029897836539 3.07499267578125 0.6080645282451924 3.07499267578125 Q 0.6513337590144231 3.07499267578125 0.6865260667067308 3.0928772911658653 Q 0.7217183743990385 3.110761906550481 0.7468145282451923 3.140761906550481 Q 0.7719106820913462 3.1707619065504806 0.7857568359375 3.2076849834735577 Q 0.7996029897836539 3.2446080603966347 0.7996029897836539 3.283261906550481 Q 0.7996029897836539 3.324223445012019 0.785179912860577 3.3614349834735577 Q 0.7707568359375001 3.3986465219350963 0.7447952974759616 3.4277811373197116 Q 0.7188337590144231 3.456915752704327 0.6836414513221154 3.473646521935096 Q 0.6484491436298078 3.4903772911658657 0.6074876051682693 3.4903772911658657 M 0.45575683593750005 3.282684983473558 Q 0.45575683593750005 3.3161465219350963 0.4667183743990385 3.347011906550481 Q 0.477679912860577 3.3778772911658654 0.49787222055288466 3.401819598858173 Q 0.5180645282451923 3.425761906550481 0.5460452974759615 3.439896521935096 Q 0.5740260667067308 3.4540311373197117 0.6074876051682693 3.4540311373197117 Q 0.6426799128605769 3.4540311373197117 0.6706606820913462 3.439319598858173 Q 0.6986414513221155 3.424608060396635 0.7185452974759616 3.400088829627404 Q 0.7384491436298077 3.3755695988581733 0.7488337590144232 3.34499267578125 Q 0.7592183743990386 3.314415752704327 0.7592183743990386 3.282684983473558 Q 0.7592183743990386 3.2492234450120194 0.7482568359375001 3.218646521935096 Q 0.7372952974759617 3.1880695988581733 0.7168145282451923 3.163838829627404 Q 0.6963337590144232 3.1396080603966348 0.6686414513221155 3.1257619065504807 Q 0.6409491436298078 3.111915752704327 0.6074876051682693 3.111915752704327 Q 0.5728722205528847 3.111915752704327 0.5448914513221155 3.1263388296274037 Q 0.5169106820913462 3.140761906550481 0.49700683593750006 3.1652811373197114 Q 0.4771029897836539 3.1898003680889424 0.46642991286057695 3.2203772911658657 Q 0.45575683593750005 3.2509542142427885 0.45575683593750005 3.282684983473558 M 0.9161279296875001 3.1523003680889423 L 0.9161279296875001 3.48749267578125 L 0.8757433143028847 3.48749267578125 L 0.8757433143028847 3.0778772911658656 L 0.9092048527644232 3.0778772911658656 L 1.178051006610577 3.419415752704327 L 1.178051006610577 3.0784542142427886 L 1.2184356219951924 3.0784542142427886 L 1.2184356219951924 3.48749267578125 L 1.1809356219951925 3.48749267578125 L 0.9161279296875001 3.1523003680889423 M 1.3193813852163463 3.0778772911658656 L 1.4659198467548078 3.4373003680889425 L 1.6118813852163463 3.0778772911658656 L 1.653996769831731 3.0778772911658656 L 1.4843813852163463 3.48749267578125 L 1.4474583082932693 3.48749267578125 L 1.2772660006009617 3.0778772911658656 L 1.3193813852163463 3.0778772911658656 M 1.9880445274939906 3.4517234450120196 L 1.9880445274939906 3.48749267578125 L 1.712852219801683 3.48749267578125 L 1.712852219801683 3.0778772911658656 L 1.982852219801683 3.0778772911658656 L 1.982852219801683 3.113646521935096 L 1.7532368351862981 3.113646521935096 L 1.7532368351862981 3.261338829627404 L 1.953429142878606 3.261338829627404 L 1.953429142878606 3.2953772911658654 L 1.7532368351862981 3.2953772911658654 L 1.7532368351862981 3.4517234450120196 L 1.9880445274939906 3.4517234450120196 M 2.0642034442608175 3.48749267578125 L 2.0642034442608175 3.0778772911658656 L 2.237280367337741 3.0778772911658656 Q 2.263818828876202 3.0778772911658656 2.285741905799279 3.088838829627404 Q 2.307664982722356 3.0998003680889425 2.3241072904146636 3.1185503680889424 Q 2.3405495981069713 3.137300368088942 2.349491905799279 3.160088829627404 Q 2.358434213491587 3.1828772911658656 2.358434213491587 3.2065311373197116 Q 2.358434213491587 3.2359542142427884 2.347184213491587 3.261915752704327 Q 2.335934213491587 3.2878772911658656 2.3154534442608177 3.305761906550481 Q 2.2949726750300483 3.323646521935096 2.2672803673377406 3.329415752704327 L 2.367664982722356 3.48749267578125 L 2.322088059645433 3.48749267578125 L 2.2257419057992793 3.336338829627404 L 2.104588059645433 3.336338829627404 L 2.104588059645433 3.48749267578125 L 2.0642034442608175 3.48749267578125 M 2.104588059645433 3.300569598858173 L 2.238434213491587 3.300569598858173 Q 2.262664982722356 3.300569598858173 2.2805495981069717 3.2873003680889425 Q 2.298434213491587 3.2740311373197115 2.3082419057992793 3.252396521935096 Q 2.3180495981069713 3.2307619065504807 2.3180495981069713 3.2065311373197116 Q 2.3180495981069713 3.181723445012019 2.3067995981069713 3.160665752704327 Q 2.2955495981069713 3.1396080603966348 2.2767995981069715 3.1266272911658657 Q 2.2580495981069717 3.113646521935096 2.2349726750300483 3.113646521935096 L 2.104588059645433 3.113646521935096 L 2.104588059645433 3.300569598858173 M 2.7276627291165867 3.113646521935096 L 2.5817011906550484 3.113646521935096 L 2.5817011906550484 3.48749267578125 L 2.5413165752704328 3.48749267578125 L 2.5413165752704328 3.113646521935096 L 2.3953550368088945 3.113646521935096 L 2.3953550368088945 3.0778772911658656 L 2.7276627291165867 3.0778772911658656 L 2.7276627291165867 3.113646521935096 M 2.7888081242487983 3.48749267578125 L 2.7888081242487983 3.0778772911658656 L 2.829192739633414 3.0778772911658656 L 2.829192739633414 3.48749267578125 L 2.7888081242487983 3.48749267578125 M 2.9722614933894236 3.1523003680889423 L 2.9722614933894236 3.48749267578125 L 2.931876878004808 3.48749267578125 L 2.931876878004808 3.0778772911658656 L 2.9653384164663463 3.0778772911658656 L 3.2341845703125003 3.419415752704327 L 3.2341845703125003 3.0784542142427886 L 3.274569185697116 3.0784542142427886 L 3.274569185697116 3.48749267578125 L 3.237069185697116 3.48749267578125 L 2.9722614933894236 3.1523003680889423 M 3.5416687950721157 3.4903772911658657 Q 3.5007072566105775 3.4903772911658657 3.4655149489182695 3.4727811373197115 Q 3.430322641225962 3.4551849834735577 3.4043611027644234 3.425184983473558 Q 3.3783995643028852 3.3951849834735577 3.3642649489182697 3.358261906550481 Q 3.350130333533654 3.321338829627404 3.350130333533654 3.282108060396635 Q 3.350130333533654 3.240569598858173 3.3642649489182697 3.2033580603966345 Q 3.3783995643028852 3.1661465219350964 3.4037841796875004 3.137300368088942 Q 3.429168795072116 3.1084542142427884 3.4637841796875004 3.0917234450120192 Q 3.498399564302885 3.07499267578125 3.5393611027644236 3.07499267578125 Q 3.5999380258413467 3.07499267578125 3.63801494891827 3.0998003680889425 Q 3.676091871995193 3.1246080603966346 3.6957072566105773 3.164415752704327 L 3.6645534104567314 3.1851849834735577 Q 3.6449380258413466 3.1471080603966346 3.6120534104567312 3.1292234450120193 Q 3.579168795072116 3.111338829627404 3.5387841796875006 3.111338829627404 Q 3.5047457181490387 3.111338829627404 3.4773418719951925 3.1257619065504807 Q 3.449938025841347 3.140184983473558 3.430322641225962 3.164415752704327 Q 3.410707256610577 3.1886465219350963 3.4006111027644237 3.219223445012019 Q 3.3905149489182698 3.2498003680889425 3.3905149489182698 3.282684983473558 Q 3.3905149489182698 3.3173003680889424 3.4020534104567313 3.348165752704327 Q 3.4135918719951928 3.3790311373197115 3.4349380258413467 3.4029734450120195 Q 3.4562841796875006 3.426915752704327 3.4842649489182698 3.440473445012019 Q 3.512245718149039 3.4540311373197117 3.5445534104567313 3.4540311373197117 Q 3.582053410456731 3.4540311373197117 3.61551494891827 3.435281137319712 Q 3.6489764873798083 3.4165311373197116 3.679553410456731 3.3773003680889424 L 3.679553410456731 3.41999267578125 Q 3.6212841796875006 3.4903772911658657 3.5416687950721157 3.4903772911658657 M 3.6732072566105773 3.3173003680889424 L 3.582053410456731 3.3173003680889424 L 3.582053410456731 3.286146521935096 L 3.707245718149039 3.286146521935096 L 3.707245718149039 3.48749267578125 L 3.6732072566105773 3.48749267578125 L 3.6732072566105773 3.3173003680889424 M 3.9374428147536062 3.48749267578125 L 3.9374428147536062 3.0778772911658656 L 3.977827430138222 3.0778772911658656 L 3.977827430138222 3.48749267578125 L 3.9374428147536062 3.48749267578125 M 4.080511568509617 3.48749267578125 L 4.080511568509617 3.0778772911658656 L 4.219550030048078 3.0778772911658656 Q 4.2847423377403855 3.0778772911658656 4.328300030048078 3.105281137319712 Q 4.37185772235577 3.132684983473558 4.393780799278847 3.1791272911658655 Q 4.415703876201924 3.225569598858173 4.415703876201924 3.282108060396635 Q 4.415703876201924 3.344415752704327 4.391761568509616 3.390569598858173 Q 4.367819260817309 3.4367234450120194 4.323684645432693 3.4621080603966345 Q 4.279550030048078 3.48749267578125 4.219550030048078 3.48749267578125 L 4.080511568509617 3.48749267578125 M 4.375319260817308 3.282108060396635 Q 4.375319260817308 3.2330695988581732 4.357146183894232 3.19499267578125 Q 4.338973106971155 3.156915752704327 4.30435772235577 3.1352811373197116 Q 4.269742337740386 3.113646521935096 4.219550030048078 3.113646521935096 L 4.1208961838942315 3.113646521935096 L 4.1208961838942315 3.4517234450120196 L 4.219550030048078 3.4517234450120196 Q 4.270319260817309 3.4517234450120196 4.304934645432693 3.429223445012019 Q 4.339550030048078 3.406723445012019 4.3574346454326935 3.3683580603966345 Q 4.375319260817308 3.32999267578125 4.375319260817308 3.282108060396635 M 4.768219369741588 3.4517234450120196 L 4.768219369741588 3.48749267578125 L 4.49302706204928 3.48749267578125 L 4.49302706204928 3.0778772911658656 L 4.76302706204928 3.0778772911658656 L 4.76302706204928 3.113646521935096 L 4.533411677433895 3.113646521935096 L 4.533411677433895 3.261338829627404 L 4.733603985126203 3.261338829627404 L 4.733603985126203 3.2953772911658654 L 4.533411677433895 3.2953772911658654 L 4.533411677433895 3.4517234450120196 L 4.768219369741588 3.4517234450120196 M 4.9713013634314915 3.0778772911658656 L 5.005339824969953 3.0778772911658656 L 5.175532132662261 3.48749267578125 L 5.132839824969953 3.48749267578125 L 5.07976290189303 3.359415752704327 L 4.895724440354568 3.359415752704327 L 4.843224440354569 3.48749267578125 L 4.799955209585338 3.48749267578125 L 4.9713013634314915 3.0778772911658656 M 5.070532132662261 3.327684983473558 L 4.988032132662261 3.1251849834735577 L 4.904378286508415 3.327684983473558 L 5.070532132662261 3.327684983473558 M 5.468041147085337 3.154608060396635 Q 5.459387300931492 3.1448003680889425 5.44784883939303 3.1370119065504807 Q 5.436310377854568 3.1292234450120193 5.421887300931491 3.1234542142427886 Q 5.4074642240084145 3.117684983473558 5.391021916316107 3.114223445012019 Q 5.374579608623799 3.110761906550481 5.35611807016226 3.110761906550481 Q 5.302464224008414 3.110761906550481 5.277368070162261 3.13124267578125 Q 5.252271916316107 3.1517234450120193 5.252271916316107 3.186915752704327 Q 5.252271916316107 3.2111465219350963 5.2640988393930295 3.22499267578125 Q 5.275925762469953 3.238838829627404 5.301310377854568 3.24749267578125 Q 5.326694993239184 3.2561465219350962 5.365925762469953 3.2653772911658656 Q 5.409771916316107 3.2746080603966345 5.441502685546876 3.2873003680889425 Q 5.473233454777645 3.29999267578125 5.490541147085337 3.3216272911658655 Q 5.50784883939303 3.343261906550481 5.50784883939303 3.380184983473558 Q 5.50784883939303 3.4084542142427887 5.496887300931491 3.429223445012019 Q 5.485925762469953 3.44999267578125 5.466310377854568 3.463838829627404 Q 5.446694993239183 3.4776849834735577 5.419579608623799 3.484319598858173 Q 5.392464224008415 3.4909542142427887 5.3601565317007225 3.4909542142427887 Q 5.328425762469953 3.4909542142427887 5.299291147085338 3.484319598858173 Q 5.270156531700722 3.4776849834735577 5.244194993239184 3.4647042142427886 Q 5.218233454777645 3.4517234450120196 5.1957334547776455 3.4315311373197117 L 5.215925762469953 3.3986465219350963 Q 5.226887300931491 3.410184983473558 5.2421757624699525 3.4202811373197117 Q 5.257464224008414 3.4303772911658656 5.276214224008414 3.4384542142427885 Q 5.294964224008415 3.446531137319712 5.31659883939303 3.4508580603966346 Q 5.3382334547776455 3.4551849834735577 5.3613103778545685 3.4551849834735577 Q 5.41034883939303 3.4551849834735577 5.437752685546876 3.4373003680889425 Q 5.465156531700722 3.419415752704327 5.465156531700722 3.384223445012019 Q 5.465156531700722 3.358838829627404 5.451310377854568 3.3435503680889425 Q 5.437464224008415 3.328261906550481 5.409771916316107 3.3184542142427884 Q 5.382079608623799 3.3086465219350965 5.341694993239184 3.299415752704327 Q 5.299002685546876 3.2896080603966347 5.269579608623799 3.27749267578125 Q 5.240156531700722 3.2653772911658656 5.225444993239184 3.2454734450120193 Q 5.210733454777645 3.225569598858173 5.210733454777645 3.1926849834735576 Q 5.210733454777645 3.154608060396635 5.229483454777645 3.1283580603966348 Q 5.248233454777645 3.1021080603966347 5.28111807016226 3.0885503680889426 Q 5.314002685546876 3.07499267578125 5.356694993239183 3.07499267578125 Q 5.3838103778545685 3.07499267578125 5.407175762469953 3.0804734450120193 Q 5.4305411470853375 3.0859542142427885 5.450444993239183 3.096338829627404 Q 5.47034883939303 3.1067234450120194 5.487656531700722 3.1223003680889425 L 5.468041147085337 3.154608060396635 M 5.725925480769232 3.48749267578125 L 5.725925480769232 3.0778772911658656 L 5.7663100961538465 3.0778772911658656 L 5.7663100961538465 3.48749267578125 L 5.725925480769232 3.48749267578125 M 5.9093788499098565 3.1523003680889423 L 5.9093788499098565 3.48749267578125 L 5.868994234525242 3.48749267578125 L 5.868994234525242 3.0778772911658656 L 5.90245577298678 3.0778772911658656 L 6.171301926832934 3.419415752704327 L 6.171301926832934 3.0784542142427886 L 6.211686542217549 3.0784542142427886 L 6.211686542217549 3.48749267578125 L 6.174186542217549 3.48749267578125 L 5.9093788499098565 3.1523003680889423 M 6.605132305438703 3.113646521935096 L 6.459170766977165 3.113646521935096 L 6.459170766977165 3.48749267578125 L 6.418786151592549 3.48749267578125 L 6.418786151592549 3.113646521935096 L 6.272824613131011 3.113646521935096 L 6.272824613131011 3.0778772911658656 L 6.605132305438703 3.0778772911658656 L 6.605132305438703 3.113646521935096 M 6.81684053861178 3.4903772911658657 Q 6.773571307842549 3.4903772911658657 6.738379000150242 3.473069598858173 Q 6.703186692457933 3.4557619065504808 6.677802077073318 3.4260503680889425 Q 6.652417461688703 3.3963388296274037 6.638571307842549 3.3591272911658656 Q 6.624725153996395 3.321915752704327 6.624725153996395 3.282684983473558 Q 6.624725153996395 3.241723445012019 6.6391482309194725 3.204511906550481 Q 6.653571307842549 3.1673003680889424 6.679821307842549 3.138165752704327 Q 6.706071307842549 3.1090311373197115 6.741263615534857 3.0920119065504807 Q 6.776455923227164 3.07499267578125 6.817417461688703 3.07499267578125 Q 6.860686692457934 3.07499267578125 6.8958790001502415 3.0928772911658653 Q 6.931071307842549 3.110761906550481 6.956167461688703 3.140761906550481 Q 6.981263615534857 3.1707619065504806 6.995109769381011 3.2076849834735577 Q 7.008955923227164 3.2446080603966347 7.008955923227164 3.283261906550481 Q 7.008955923227164 3.324223445012019 6.994532846304088 3.3614349834735577 Q 6.98010976938101 3.3986465219350963 6.954148230919472 3.4277811373197116 Q 6.928186692457934 3.456915752704327 6.892994384765626 3.473646521935096 Q 6.857802077073318 3.4903772911658657 6.81684053861178 3.4903772911658657 M 6.665109769381011 3.282684983473558 Q 6.665109769381011 3.3161465219350963 6.676071307842549 3.347011906550481 Q 6.687032846304088 3.3778772911658654 6.707225153996395 3.401819598858173 Q 6.727417461688703 3.425761906550481 6.7553982309194724 3.439896521935096 Q 6.783379000150242 3.4540311373197117 6.81684053861178 3.4540311373197117 Q 6.852032846304088 3.4540311373197117 6.880013615534857 3.439319598858173 Q 6.907994384765626 3.424608060396635 6.927898230919472 3.400088829627404 Q 6.947802077073318 3.3755695988581733 6.958186692457933 3.34499267578125 Q 6.968571307842549 3.314415752704327 6.968571307842549 3.282684983473558 Q 6.968571307842549 3.2492234450120194 6.95760976938101 3.218646521935096 Q 6.946648230919472 3.1880695988581733 6.926167461688703 3.163838829627404 Q 6.905686692457934 3.1396080603966348 6.877994384765626 3.1257619065504807 Q 6.8503020770733185 3.111915752704327 6.81684053861178 3.111915752704327 Q 6.782225153996395 3.111915752704327 6.7542443847656255 3.1263388296274037 Q 6.726263615534856 3.140761906550481 6.70635976938101 3.1652811373197114 Q 6.6864559232271645 3.1898003680889424 6.675782846304087 3.2203772911658657 Q 6.665109769381011 3.2509542142427885 6.665109769381011 3.282684983473558 M 7.232214449368991 3.48749267578125 L 7.232214449368991 3.0778772911658656 L 7.405291372445913 3.0778772911658656 Q 7.431829833984375 3.0778772911658656 7.453752910907452 3.088838829627404 Q 7.475675987830529 3.0998003680889425 7.492118295522837 3.1185503680889424 Q 7.508560603215145 3.137300368088942 7.517502910907452 3.160088829627404 Q 7.5264452185997595 3.1828772911658656 7.5264452185997595 3.2065311373197116 Q 7.5264452185997595 3.2359542142427884 7.51519521859976 3.261915752704327 Q 7.5039452185997595 3.2878772911658656 7.483464449368991 3.305761906550481 Q 7.462983680138222 3.323646521935096 7.4352913724459135 3.329415752704327 L 7.535675987830529 3.48749267578125 L 7.490099064753606 3.48749267578125 L 7.393752910907452 3.336338829627404 L 7.272599064753606 3.336338829627404 L 7.272599064753606 3.48749267578125 L 7.232214449368991 3.48749267578125 M 7.272599064753606 3.300569598858173 L 7.406445218599759 3.300569598858173 Q 7.430675987830529 3.300569598858173 7.448560603215144 3.2873003680889425 Q 7.46644521859976 3.2740311373197115 7.476252910907452 3.252396521935096 Q 7.486060603215145 3.2307619065504807 7.486060603215145 3.2065311373197116 Q 7.486060603215145 3.181723445012019 7.474810603215144 3.160665752704327 Q 7.463560603215145 3.1396080603966348 7.444810603215144 3.1266272911658657 Q 7.426060603215144 3.113646521935096 7.402983680138221 3.113646521935096 L 7.272599064753606 3.113646521935096 L 7.272599064753606 3.300569598858173 M 7.884146259014424 3.4517234450120196 L 7.884146259014424 3.48749267578125 L 7.608953951322116 3.48749267578125 L 7.608953951322116 3.0778772911658656 L 7.878953951322115 3.0778772911658656 L 7.878953951322115 3.113646521935096 L 7.649338566706731 3.113646521935096 L 7.649338566706731 3.261338829627404 L 7.849530874399038 3.261338829627404 L 7.849530874399038 3.2953772911658654 L 7.649338566706731 3.2953772911658654 L 7.649338566706731 3.4517234450120196 L 7.884146259014424 3.4517234450120196 M 8.087228252704328 3.0778772911658656 L 8.12126671424279 3.0778772911658656 L 8.291459021935097 3.48749267578125 L 8.24876671424279 3.48749267578125 L 8.195689791165865 3.359415752704327 L 8.011651329627405 3.359415752704327 L 7.959151329627405 3.48749267578125 L 7.915882098858174 3.48749267578125 L 8.087228252704328 3.0778772911658656 M 8.186459021935097 3.327684983473558 L 8.103959021935097 3.1251849834735577 L 8.020305175781251 3.327684983473558 L 8.186459021935097 3.327684983473558 M 8.35031982421875 3.48749267578125 L 8.35031982421875 3.0778772911658656 L 8.390704439603367 3.0778772911658656 L 8.390704439603367 3.4517234450120196 L 8.627242901141827 3.4517234450120196 L 8.627242901141827 3.48749267578125 L 8.35031982421875 3.48749267578125 M 8.686670485276442 3.48749267578125 L 8.686670485276442 3.0778772911658656 L 8.727055100661058 3.0778772911658656 L 8.727055100661058 3.48749267578125 L 8.686670485276442 3.48749267578125 M 9.120508469801683 3.113646521935096 L 8.974546931340145 3.113646521935096 L 8.974546931340145 3.48749267578125 L 8.934162315955529 3.48749267578125 L 8.934162315955529 3.113646521935096 L 8.78820077749399 3.113646521935096 L 8.78820077749399 3.0778772911658656 L 9.120508469801683 3.0778772911658656 L 9.120508469801683 3.113646521935096 M 9.183961557241586 3.0778772911658656 L 9.31780771108774 3.298261906550481 L 9.45280771108774 3.0778772911658656 L 9.496653864933894 3.0778772911658656 L 9.338000018780047 3.3351849834735576 L 9.338000018780047 3.48749267578125 L 9.297615403395433 3.48749267578125 L 9.297615403395433 3.3340311373197116 L 9.139538480318508 3.0778772911658656 L 9.183961557241586 3.0778772911658656" fill="#3682ae" fill-rule="nonzero"></path></g></g><defs><clipPath id="SvgjsClipPath30061"><path d=" M -6.92505165001119 -1.9139668383973478 h 6.525051650011189 v 7.315426352575946 h -6.525051650011189 Z"></path></clipPath><clipPath id="SvgjsClipPath3005655875013-1497-4b1d-8e8d-50c1de09d8ee"><path d=" M -6.92505165001119 -1.9139668383973478 L -0.40000000000000036 -1.9139668383973478 L -0.40000000000000036 5.4014595141785975 L -6.92505165001119 5.4014595141785975 Z"></path></clipPath></defs></svg>